<mxfile host="65bd71144e">
    <diagram name="ページ1" id="XbBi8IoRhXnXvYSqXn0m">
        <mxGraphModel dx="2226" dy="1404" grid="1" gridSize="10" guides="1" tooltips="1" connect="1" arrows="1" fold="1" page="1" pageScale="1" pageWidth="827" pageHeight="1169" math="0" shadow="0">
            <root>
                <mxCell id="0"/>
                <mxCell id="1" parent="0"/>
                <mxCell id="kFmo9xL2OZPqrLzDXoUA-1" value="" style="rounded=0;whiteSpace=wrap;html=1;fillColor=#f9f7ed;strokeColor=#36393d;" parent="1" vertex="1">
                    <mxGeometry x="40" y="130" width="1580" height="750" as="geometry"/>
                </mxCell>
                <mxCell id="kFmo9xL2OZPqrLzDXoUA-2" value="&lt;font style=&quot;font-size: 30px;&quot;&gt;Server&lt;/font&gt;" style="text;html=1;align=center;verticalAlign=middle;whiteSpace=wrap;rounded=0;fontSize=20;fontColor=#000000;" parent="1" vertex="1">
                    <mxGeometry x="50" y="140" width="90" height="40" as="geometry"/>
                </mxCell>
                <mxCell id="18" style="edgeStyle=orthogonalEdgeStyle;html=1;entryX=0.26;entryY=0.999;entryDx=0;entryDy=0;strokeColor=#000000;fontSize=27;fontColor=#000000;entryPerimeter=0;" edge="1" parent="1" source="kFmo9xL2OZPqrLzDXoUA-5" target="kFmo9xL2OZPqrLzDXoUA-6">
                    <mxGeometry relative="1" as="geometry"/>
                </mxCell>
                <mxCell id="kFmo9xL2OZPqrLzDXoUA-5" value="" style="rounded=0;whiteSpace=wrap;html=1;fillColor=#eeeeee;strokeColor=#36393d;" parent="1" vertex="1">
                    <mxGeometry x="69" y="390" width="791" height="160" as="geometry"/>
                </mxCell>
                <mxCell id="kFmo9xL2OZPqrLzDXoUA-6" value="" style="rounded=0;whiteSpace=wrap;html=1;fillColor=#eeeeee;strokeColor=#36393d;" parent="1" vertex="1">
                    <mxGeometry x="70" y="190" width="1520" height="130" as="geometry"/>
                </mxCell>
                <mxCell id="kFmo9xL2OZPqrLzDXoUA-7" value="&lt;font style=&quot;font-size: 24px;&quot;&gt;Models&lt;/font&gt;" style="text;html=1;align=center;verticalAlign=middle;whiteSpace=wrap;rounded=0;fontColor=#000000;" parent="1" vertex="1">
                    <mxGeometry x="774.5" y="235" width="110" height="40" as="geometry"/>
                </mxCell>
                <mxCell id="16" style="edgeStyle=orthogonalEdgeStyle;html=1;entryX=0.682;entryY=1;entryDx=0;entryDy=0;strokeColor=#000000;fontSize=27;fontColor=#000000;entryPerimeter=0;" edge="1" parent="1" source="kFmo9xL2OZPqrLzDXoUA-9" target="kFmo9xL2OZPqrLzDXoUA-6">
                    <mxGeometry relative="1" as="geometry">
                        <Array as="points">
                            <mxPoint x="1107" y="540"/>
                            <mxPoint x="1107" y="540"/>
                        </Array>
                    </mxGeometry>
                </mxCell>
                <mxCell id="26" style="edgeStyle=orthogonalEdgeStyle;html=1;entryX=0.25;entryY=1;entryDx=0;entryDy=0;strokeColor=#000000;fontSize=20;fontColor=#000000;movable=1;resizable=1;rotatable=1;deletable=1;editable=1;connectable=1;" edge="1" parent="1" source="kFmo9xL2OZPqrLzDXoUA-9" target="21">
                    <mxGeometry relative="1" as="geometry">
                        <Array as="points">
                            <mxPoint x="753" y="570"/>
                            <mxPoint x="753" y="570"/>
                        </Array>
                    </mxGeometry>
                </mxCell>
                <mxCell id="kFmo9xL2OZPqrLzDXoUA-9" value="" style="rounded=0;whiteSpace=wrap;html=1;fillColor=#eeeeee;strokeColor=#36393d;" parent="1" vertex="1">
                    <mxGeometry x="680" y="620" width="490" height="190" as="geometry"/>
                </mxCell>
                <mxCell id="kFmo9xL2OZPqrLzDXoUA-10" value="UseCases" style="text;html=1;align=center;verticalAlign=middle;whiteSpace=wrap;rounded=0;fontSize=24;fontColor=#000000;" parent="1" vertex="1">
                    <mxGeometry x="404.5" y="450" width="120" height="40" as="geometry"/>
                </mxCell>
                <mxCell id="15" style="edgeStyle=orthogonalEdgeStyle;html=1;strokeColor=#000000;fontSize=27;fontColor=#000000;entryX=0.577;entryY=0.999;entryDx=0;entryDy=0;entryPerimeter=0;" edge="1" parent="1" source="kFmo9xL2OZPqrLzDXoUA-13" target="kFmo9xL2OZPqrLzDXoUA-5">
                    <mxGeometry relative="1" as="geometry">
                        <mxPoint x="524" y="560" as="targetPoint"/>
                    </mxGeometry>
                </mxCell>
                <mxCell id="kFmo9xL2OZPqrLzDXoUA-13" value="" style="rounded=0;whiteSpace=wrap;html=1;fillColor=#eeeeee;strokeColor=#36393d;" parent="1" vertex="1">
                    <mxGeometry x="400" y="620" width="250" height="190" as="geometry"/>
                </mxCell>
                <mxCell id="kFmo9xL2OZPqrLzDXoUA-14" value="Controllers" style="text;html=1;align=center;verticalAlign=middle;whiteSpace=wrap;rounded=0;fontSize=24;fontColor=#000000;" parent="1" vertex="1">
                    <mxGeometry x="400" y="630" width="139" height="40" as="geometry"/>
                </mxCell>
                <mxCell id="kFmo9xL2OZPqrLzDXoUA-18" value="Datab&lt;span style=&quot;background-color: initial;&quot;&gt;ases&lt;/span&gt;" style="text;html=1;align=center;verticalAlign=middle;whiteSpace=wrap;rounded=0;fontSize=24;fontColor=#000000;" parent="1" vertex="1">
                    <mxGeometry x="680" y="620" width="139" height="40" as="geometry"/>
                </mxCell>
                <mxCell id="17" style="edgeStyle=orthogonalEdgeStyle;html=1;strokeColor=#000000;fontSize=27;fontColor=#000000;entryX=0.5;entryY=1;entryDx=0;entryDy=0;" edge="1" parent="1" source="2" target="23">
                    <mxGeometry relative="1" as="geometry">
                        <Array as="points"/>
                    </mxGeometry>
                </mxCell>
                <mxCell id="20" style="edgeStyle=orthogonalEdgeStyle;html=1;strokeColor=#000000;fontSize=27;fontColor=#000000;entryX=0.733;entryY=0.993;entryDx=0;entryDy=0;entryPerimeter=0;" edge="1" parent="1" source="2" target="21">
                    <mxGeometry relative="1" as="geometry">
                        <mxPoint x="820" y="560" as="targetPoint"/>
                        <Array as="points">
                            <mxPoint x="1280" y="530"/>
                            <mxPoint x="815" y="530"/>
                        </Array>
                    </mxGeometry>
                </mxCell>
                <mxCell id="2" value="" style="rounded=0;whiteSpace=wrap;html=1;fillColor=#eeeeee;strokeColor=#36393d;" vertex="1" parent="1">
                    <mxGeometry x="1190" y="620" width="400" height="190" as="geometry"/>
                </mxCell>
                <mxCell id="3" value="" style="rounded=0;whiteSpace=wrap;html=1;fillColor=#f9f7ed;strokeColor=#36393d;" vertex="1" parent="1">
                    <mxGeometry x="870" y="660" width="280" height="130" as="geometry"/>
                </mxCell>
                <mxCell id="4" value="DBClients" style="text;html=1;align=center;verticalAlign=middle;whiteSpace=wrap;rounded=0;fontSize=24;fontColor=#000000;" vertex="1" parent="1">
                    <mxGeometry x="870" y="660" width="139" height="40" as="geometry"/>
                </mxCell>
                <mxCell id="5" value="Authentications" style="text;html=1;align=center;verticalAlign=middle;whiteSpace=wrap;rounded=0;fontSize=24;fontColor=#000000;" vertex="1" parent="1">
                    <mxGeometry x="1190" y="620" width="190" height="40" as="geometry"/>
                </mxCell>
                <mxCell id="9" style="edgeStyle=orthogonalEdgeStyle;html=1;entryX=0.5;entryY=1;entryDx=0;entryDy=0;fontSize=27;strokeColor=#000000;" edge="1" parent="1" source="7" target="8">
                    <mxGeometry relative="1" as="geometry"/>
                </mxCell>
                <mxCell id="7" value="&lt;font style=&quot;font-size: 27px;&quot;&gt;Program&lt;/font&gt;" style="rounded=0;whiteSpace=wrap;html=1;fillColor=#60a917;fontColor=#ffffff;strokeColor=#2D7600;" vertex="1" parent="1">
                    <mxGeometry x="130.5" y="760" width="180" height="50" as="geometry"/>
                </mxCell>
                <mxCell id="8" value="&lt;font style=&quot;font-size: 27px;&quot;&gt;ServerEnvironments&lt;/font&gt;" style="rounded=0;whiteSpace=wrap;html=1;fillColor=#60a917;fontColor=#ffffff;strokeColor=#2D7600;" vertex="1" parent="1">
                    <mxGeometry x="70" y="620" width="301" height="50" as="geometry"/>
                </mxCell>
                <mxCell id="13" style="edgeStyle=none;html=1;entryX=0;entryY=0.5;entryDx=0;entryDy=0;fontSize=27;exitX=1;exitY=0.5;exitDx=0;exitDy=0;strokeColor=#000000;" edge="1" parent="1" source="11" target="12">
                    <mxGeometry relative="1" as="geometry"/>
                </mxCell>
                <mxCell id="11" value="&lt;span style=&quot;font-size: 27px;&quot;&gt;Repository&lt;/span&gt;" style="rounded=0;whiteSpace=wrap;html=1;fillColor=#60a917;fontColor=#ffffff;strokeColor=#2D7600;" vertex="1" parent="1">
                    <mxGeometry x="697" y="720" width="163" height="30" as="geometry"/>
                </mxCell>
                <mxCell id="12" value="&lt;span style=&quot;font-size: 27px;&quot;&gt;DBClient&lt;/span&gt;" style="rounded=0;whiteSpace=wrap;html=1;fillColor=#60a917;fontColor=#ffffff;strokeColor=#2D7600;" vertex="1" parent="1">
                    <mxGeometry x="950" y="720" width="140" height="30" as="geometry"/>
                </mxCell>
                <mxCell id="21" value="&lt;span style=&quot;font-size: 20px;&quot;&gt;Interface&lt;br style=&quot;font-size: 20px;&quot;&gt;&lt;/span&gt;" style="rounded=0;whiteSpace=wrap;html=1;fillColor=#ffff88;strokeColor=#36393d;fontColor=#000000;fontSize=20;" vertex="1" parent="1">
                    <mxGeometry x="720" y="460" width="130" height="40" as="geometry"/>
                </mxCell>
                <mxCell id="23" value="&lt;span style=&quot;font-size: 20px;&quot;&gt;Interface&lt;br style=&quot;font-size: 20px;&quot;&gt;&lt;/span&gt;" style="rounded=0;whiteSpace=wrap;html=1;fillColor=#ffff88;strokeColor=#36393d;fontColor=#000000;fontSize=20;" vertex="1" parent="1">
                    <mxGeometry x="1295" y="260" width="190" height="40" as="geometry"/>
                </mxCell>
                <mxCell id="25" style="edgeStyle=orthogonalEdgeStyle;html=1;entryX=0;entryY=0.5;entryDx=0;entryDy=0;strokeColor=#000000;fontSize=20;fontColor=#000000;" edge="1" parent="1" source="24" target="21">
                    <mxGeometry relative="1" as="geometry"/>
                </mxCell>
                <mxCell id="24" value="&lt;font style=&quot;font-size: 27px;&quot;&gt;UseCase&lt;/font&gt;" style="rounded=0;whiteSpace=wrap;html=1;fillColor=#60a917;fontColor=#ffffff;strokeColor=#2D7600;" vertex="1" parent="1">
                    <mxGeometry x="550" y="465" width="120" height="30" as="geometry"/>
                </mxCell>
                <mxCell id="27" value="&lt;span style=&quot;font-size: 27px;&quot;&gt;AccessTokenGenerator&lt;/span&gt;" style="rounded=0;whiteSpace=wrap;html=1;fillColor=#60a917;fontColor=#ffffff;strokeColor=#2D7600;" vertex="1" parent="1">
                    <mxGeometry x="1245" y="670" width="290" height="30" as="geometry"/>
                </mxCell>
                <mxCell id="28" value="&lt;span style=&quot;font-size: 27px;&quot;&gt;HasherByPBKDF2&lt;/span&gt;" style="rounded=0;whiteSpace=wrap;html=1;fillColor=#60a917;fontColor=#ffffff;strokeColor=#2D7600;" vertex="1" parent="1">
                    <mxGeometry x="1245" y="750" width="290" height="30" as="geometry"/>
                </mxCell>
                <mxCell id="29" value="&lt;font style=&quot;font-size: 27px;&quot;&gt;User&lt;/font&gt;" style="rounded=0;whiteSpace=wrap;html=1;fillColor=#60a917;fontColor=#ffffff;strokeColor=#2D7600;" vertex="1" parent="1">
                    <mxGeometry x="280" y="235" width="120" height="30" as="geometry"/>
                </mxCell>
                <mxCell id="30" value="&lt;font style=&quot;font-size: 27px;&quot;&gt;RawPasword&lt;/font&gt;" style="rounded=0;whiteSpace=wrap;html=1;fillColor=#60a917;fontColor=#ffffff;strokeColor=#2D7600;" vertex="1" parent="1">
                    <mxGeometry x="540" y="240" width="210" height="30" as="geometry"/>
                </mxCell>
                <mxCell id="31" value="&lt;font style=&quot;font-size: 27px;&quot;&gt;Controller&lt;/font&gt;" style="rounded=0;whiteSpace=wrap;html=1;fillColor=#60a917;fontColor=#ffffff;strokeColor=#2D7600;" vertex="1" parent="1">
                    <mxGeometry x="414.5" y="765" width="221" height="40" as="geometry"/>
                </mxCell>
                <mxCell id="10" style="edgeStyle=orthogonalEdgeStyle;html=1;entryX=1;entryY=0.5;entryDx=0;entryDy=0;fontSize=27;strokeColor=#000000;exitX=0;exitY=0.5;exitDx=0;exitDy=0;" edge="1" parent="1" source="31" target="7">
                    <mxGeometry relative="1" as="geometry"/>
                </mxCell>
                <mxCell id="32" value="モデルを利用" style="text;html=1;strokeColor=none;fillColor=none;align=center;verticalAlign=middle;whiteSpace=wrap;rounded=0;fontSize=20;fontColor=#000000;" vertex="1" parent="1">
                    <mxGeometry x="470" y="340" width="150" height="30" as="geometry"/>
                </mxCell>
                <mxCell id="33" value="ユースケースを呼び出す" style="text;html=1;strokeColor=none;fillColor=none;align=center;verticalAlign=middle;whiteSpace=wrap;rounded=0;fontSize=20;fontColor=#000000;" vertex="1" parent="1">
                    <mxGeometry x="530" y="570" width="150" height="30" as="geometry"/>
                </mxCell>
                <mxCell id="34" value="環境変数を取得" style="text;html=1;strokeColor=none;fillColor=none;align=center;verticalAlign=middle;whiteSpace=wrap;rounded=0;fontSize=20;fontColor=#000000;" vertex="1" parent="1">
                    <mxGeometry x="221" y="700" width="150" height="30" as="geometry"/>
                </mxCell>
                <mxCell id="35" value="レート制限の&lt;br&gt;設定参照" style="text;html=1;strokeColor=none;fillColor=none;align=center;verticalAlign=middle;whiteSpace=wrap;rounded=0;fontSize=20;fontColor=#000000;" vertex="1" parent="1">
                    <mxGeometry x="290" y="820" width="150" height="30" as="geometry"/>
                </mxCell>
                <mxCell id="36" value="DBアクセス" style="text;html=1;strokeColor=none;fillColor=none;align=center;verticalAlign=middle;whiteSpace=wrap;rounded=0;fontSize=20;fontColor=#000000;" vertex="1" parent="1">
                    <mxGeometry x="819" y="750" width="150" height="30" as="geometry"/>
                </mxCell>
                <mxCell id="37" value="モデルに詰め替える・永続化" style="text;html=1;strokeColor=none;fillColor=none;align=center;verticalAlign=middle;whiteSpace=wrap;rounded=0;fontSize=20;fontColor=#000000;" vertex="1" parent="1">
                    <mxGeometry x="827" y="340" width="275" height="50" as="geometry"/>
                </mxCell>
                <mxCell id="39" value="インターフェイスを実装・&lt;br&gt;モデルを利用" style="text;html=1;strokeColor=none;fillColor=none;align=center;verticalAlign=middle;whiteSpace=wrap;rounded=0;fontSize=20;fontColor=#000000;" vertex="1" parent="1">
                    <mxGeometry x="1360" y="445" width="250" height="50" as="geometry"/>
                </mxCell>
                <mxCell id="40" value="インターフェイスを実装" style="text;html=1;strokeColor=none;fillColor=none;align=center;verticalAlign=middle;whiteSpace=wrap;rounded=0;fontSize=20;fontColor=#000000;" vertex="1" parent="1">
                    <mxGeometry x="750" y="550" width="270" height="30" as="geometry"/>
                </mxCell>
                <mxCell id="42" value="" style="rounded=0;whiteSpace=wrap;html=1;fillColor=#f9f7ed;strokeColor=#36393d;" vertex="1" parent="1">
                    <mxGeometry x="1030" y="890" width="590" height="190" as="geometry"/>
                </mxCell>
                <mxCell id="43" value="凡例" style="text;html=1;align=center;verticalAlign=middle;whiteSpace=wrap;rounded=0;fontSize=24;fontColor=#000000;" vertex="1" parent="1">
                    <mxGeometry x="1030" y="890" width="80" height="40" as="geometry"/>
                </mxCell>
                <mxCell id="44" value="&lt;span style=&quot;font-size: 27px;&quot;&gt;クラス&lt;/span&gt;" style="rounded=0;whiteSpace=wrap;html=1;fillColor=#60a917;fontColor=#ffffff;strokeColor=#2D7600;" vertex="1" parent="1">
                    <mxGeometry x="1101" y="950" width="189" height="30" as="geometry"/>
                </mxCell>
                <mxCell id="45" value="&lt;span style=&quot;font-size: 20px;&quot;&gt;インターフェイス&lt;br style=&quot;font-size: 20px;&quot;&gt;&lt;/span&gt;" style="rounded=0;whiteSpace=wrap;html=1;fillColor=#ffff88;strokeColor=#36393d;fontColor=#000000;fontSize=20;" vertex="1" parent="1">
                    <mxGeometry x="1101" y="1010" width="189" height="30" as="geometry"/>
                </mxCell>
                <mxCell id="46" value="" style="rounded=0;whiteSpace=wrap;html=1;fillColor=#f9f7ed;strokeColor=#36393d;" vertex="1" parent="1">
                    <mxGeometry x="1310" y="940" width="240" height="100" as="geometry"/>
                </mxCell>
                <mxCell id="47" value="名前空間" style="text;html=1;align=center;verticalAlign=middle;whiteSpace=wrap;rounded=0;fontSize=24;fontColor=#000000;" vertex="1" parent="1">
                    <mxGeometry x="1310" y="940" width="110" height="40" as="geometry"/>
                </mxCell>
                <mxCell id="48" value="インターフェイス&lt;br&gt;を介して利用" style="text;html=1;strokeColor=none;fillColor=none;align=center;verticalAlign=middle;whiteSpace=wrap;rounded=0;fontSize=20;fontColor=#000000;" vertex="1" parent="1">
                    <mxGeometry x="539" y="410" width="305" height="50" as="geometry"/>
                </mxCell>
            </root>
        </mxGraphModel>
    </diagram>
</mxfile>